<?xml version="1.0" standalone="no"?>
<!DOCTYPE svg PUBLIC "-//W3C//DTD SVG 20010904//EN"
 "http://www.w3.org/TR/2001/REC-SVG-20010904/DTD/svg10.dtd">
<svg version="1.0" xmlns="http://www.w3.org/2000/svg"
 width="492.000000pt" height="492.000000pt" viewBox="0 0 492.000000 492.000000"
 preserveAspectRatio="xMidYMid meet">
<metadata>
Created by potrace 1.11, written by Peter Selinger 2001-2013
</metadata>
<g transform="translate(0.000000,492.000000) scale(0.100000,-0.100000)"
fill="#000000" stroke="none">
<path d="M4386 3515 c-57 -20 -114 -80 -131 -139 -9 -30 -15 -92 -15 -158 0
-59 -3 -108 -6 -108 -3 0 -19 11 -36 25 -31 26 -114 55 -157 55 -40 -1 -104
-34 -134 -69 -88 -105 -36 -258 101 -290 43 -11 55 -10 102 8 l54 21 22 -21
c27 -26 44 -82 44 -152 0 -61 16 -87 54 -87 44 0 53 25 60 175 6 133 27 252
54 302 10 18 18 21 46 16 42 -7 122 19 156 49 101 89 107 236 14 325 -63 61
-144 78 -228 48z m179 -56 c69 -47 95 -151 56 -227 -36 -71 -100 -105 -188
-100 l-55 3 -19 -47 c-34 -87 -57 -234 -58 -376 -1 -54 -4 -73 -13 -70 -8 3
-15 32 -19 74 -6 83 -30 136 -75 171 l-33 25 -37 -22 c-127 -79 -277 72 -192
196 31 45 61 59 122 59 75 -1 133 -36 174 -105 18 -30 37 -56 42 -58 6 -2 10
63 10 175 1 231 15 272 105 315 54 25 131 20 180 -13z"/>
<path d="M3946 3425 c-11 -29 -7 -44 15 -56 18 -9 25 -7 43 10 16 17 18 25 10
39 -15 23 -60 28 -68 7z"/>
<path d="M2107 3285 c-254 -35 -496 -151 -682 -327 -190 -179 -314 -402 -370
-663 -14 -61 -19 -152 -24 -390 -7 -341 -7 -339 -73 -401 -55 -52 -96 -68
-169 -68 -99 0 -177 52 -215 143 -18 43 -17 91 1 115 15 19 15 19 15 -1 0 -29
25 -46 55 -39 36 9 35 57 -1 83 l-27 20 28 41 c43 65 30 73 -118 70 -139 -3
-156 -13 -119 -66 31 -43 29 -53 -9 -40 -45 16 -48 1 -3 -18 68 -28 102 -69
110 -133 15 -130 103 -248 224 -304 54 -25 78 -30 145 -31 44 -1 97 3 118 8
l37 8 0 -255 c0 -244 -1 -256 -19 -262 -11 -3 -104 -3 -206 0 -102 3 -194 3
-205 0 -24 -8 -27 -40 -4 -49 20 -8 3338 -8 3358 0 9 3 16 15 16 25 0 18 -13
19 -222 21 l-223 3 -3 209 -2 209 37 -7 c94 -16 202 -17 289 -3 287 47 507
230 597 497 39 113 42 150 42 495 l0 340 -182 3 -183 2 -5 -22 c-2 -13 -6
-120 -7 -238 l-3 -215 -30 -54 c-51 -93 -141 -151 -238 -153 -82 -2 -128 10
-187 50 -97 66 -121 122 -150 357 -6 50 -27 137 -46 195 -153 459 -543 782
-1020 845 -130 17 -197 17 -327 0z m178 -34 c-6 -4 -39 -16 -75 -26 -293 -79
-530 -337 -596 -648 -20 -95 -19 -400 1 -486 38 -160 155 -306 306 -380 46
-23 108 -46 138 -51 355 -66 687 193 694 541 2 69 -1 84 -13 84 -11 0 -16 -18
-21 -75 -8 -98 -23 -151 -61 -227 -61 -121 -170 -214 -309 -262 -300 -103
-624 85 -694 402 -24 110 -17 377 14 492 33 128 102 254 189 347 117 124 232
191 399 234 297 75 605 -28 868 -292 184 -184 300 -416 340 -679 8 -55 15
-115 15 -132 0 -18 7 -51 16 -73 16 -40 16 -42 -5 -56 -31 -22 -26 -37 12 -31
29 4 37 0 77 -45 l44 -50 -22 -39 c-22 -37 -22 -59 -2 -59 5 0 19 18 31 41 17
34 24 40 42 35 12 -4 43 -12 70 -19 45 -11 47 -13 47 -49 0 -48 8 -68 26 -61
9 3 14 21 14 54 0 45 2 49 24 49 13 0 43 7 67 16 40 14 45 14 54 -2 27 -44 48
-65 57 -56 6 6 2 24 -10 49 l-20 38 52 52 53 51 36 -21 c27 -15 40 -18 48 -10
8 8 0 18 -29 37 l-41 26 14 42 c8 24 17 55 20 69 3 16 13 29 25 32 26 7 26 23
0 30 -19 5 -20 14 -20 166 l0 161 145 0 145 0 0 -272 c0 -391 -22 -511 -123
-666 -93 -142 -249 -251 -427 -298 -99 -26 -283 -23 -380 6 -257 76 -439 262
-514 523 l-17 58 -42 -3 c-47 -3 -59 -28 -18 -38 19 -4 28 -19 47 -75 71 -213
232 -389 429 -472 l70 -30 3 -129 3 -130 -35 -12 c-44 -16 -83 -62 -92 -107
-8 -47 -31 -44 -44 4 -16 59 -59 91 -124 91 -43 0 -57 -5 -83 -29 -19 -17 -34
-43 -38 -65 l-7 -36 -157 2 -156 3 0 182 c0 100 -3 185 -6 188 -8 7 -917 8
-929 0 -6 -3 -10 -55 -10 -115 0 -104 -1 -109 -22 -115 -40 -12 -88 -66 -95
-107 -4 -28 -10 -38 -24 -38 -12 0 -19 7 -19 20 0 31 -26 75 -54 94 -15 9 -46
16 -76 16 -43 0 -56 -5 -80 -28 -16 -16 -32 -45 -35 -65 l-7 -37 -159 0 -159
0 0 280 c0 302 1 297 -51 270 -41 -23 -127 -31 -191 -20 -68 13 -107 30 -153
68 -52 43 -48 51 13 26 107 -44 222 -22 299 58 78 82 77 77 84 418 7 322 16
396 62 541 153 470 615 815 1112 828 27 0 45 -3 40 -8z m-1647 -1530 c15 -9
13 -42 -3 -48 -13 -4 -38 35 -30 47 7 12 16 12 33 1z m1902 -765 c0 -143 -3
-175 -15 -179 -7 -3 -126 -5 -262 -4 l-248 2 -3 178 -2 177 265 0 265 0 0
-174z m-740 -112 l0 -55 -42 3 c-39 3 -43 5 -40 28 4 28 49 80 69 80 9 0 13
-16 13 -56z m1675 0 l0 -49 -42 -3 c-41 -3 -43 -2 -43 23 0 30 52 89 73 82 7
-2 12 -22 12 -53z m-1909 28 c27 -21 47 -59 39 -72 -7 -11 -168 -14 -178 -4
-10 10 14 64 36 79 29 20 77 19 103 -3z m1678 -4 c14 -13 27 -34 28 -48 3 -25
2 -25 -84 -28 -87 -3 -88 -3 -88 22 0 32 52 76 90 76 16 0 40 -10 54 -22z"/>
<path d="M3098 2197 c-2 -74 3 -101 24 -124 28 -30 70 -38 107 -19 36 19 42
28 52 80 8 45 3 66 -17 66 -10 0 -14 -13 -14 -43 0 -50 -22 -77 -62 -77 -40 0
-58 29 -58 92 0 40 -4 57 -15 62 -12 4 -15 -4 -17 -37z"/>
<path d="M4571 2904 c-50 -64 -8 -140 75 -135 60 3 87 96 41 139 -34 32 -89
30 -116 -4z m98 -36 c11 -30 -4 -58 -32 -58 -27 0 -47 17 -47 40 0 42 65 56
79 18z"/>
<path d="M368 769 c-25 -14 -22 -36 5 -43 29 -8 101 -8 121 0 24 9 19 41 -6
48 -35 9 -101 7 -120 -5z"/>
<path d="M4045 766 c-30 -22 -6 -39 62 -44 65 -4 109 16 86 39 -20 20 -124 24
-148 5z"/>
</g>
</svg>
